<svg xmlns="http://www.w3.org/2000/svg"
    width="900" height="300"
    viewBox="0 0 900 300">

    <rect width="100%" height="100%" fill="#0d1117" />

    <g id="boxes">

        <rect x="34" y="40"
              width="12" height="12"
              fill="#0e4429" rx="2"/>

        <rect x="34" y="56"
              width="12" height="12"
              fill="#006d32" rx="2"/>

        <rect x="34" y="72"
              width="12" height="12"
              fill="#0e4429" rx="2"/>

        <rect x="34" y="88"
              width="12" height="12"
              fill="#006d32" rx="2"/>

        <rect x="34" y="104"
              width="12" height="12"
              fill="#0e4429" rx="2"/>

        <rect x="34" y="120"
              width="12" height="12"
              fill="#006d32" rx="2"/>

        <rect x="34" y="136"
              width="12" height="12"
              fill="#0e4429" rx="2"/>

        <rect x="50" y="40"
              width="12" height="12"
              fill="#006d32" rx="2"/>

        <rect x="50" y="56"
              width="12" height="12"
              fill="#39d353" rx="2"/>

        <rect x="50" y="72"
              width="12" height="12"
              fill="#26a641" rx="2"/>

        <rect x="50" y="88"
              width="12" height="12"
              fill="#26a641" rx="2"/>

        <rect x="50" y="104"
              width="12" height="12"
              fill="#26a641" rx="2"/>

        <rect x="50" y="120"
              width="12" height="12"
              fill="#006d32" rx="2"/>

        <rect x="50" y="136"
              width="12" height="12"
              fill="#0e4429" rx="2"/>

        <rect x="66" y="40"
              width="12" height="12"
              fill="#26a641" rx="2"/>

        <rect x="66" y="56"
              width="12" height="12"
              fill="#39d353" rx="2"/>

        <rect x="66" y="72"
              width="12" height="12"
              fill="#006d32" rx="2"/>

        <rect x="66" y="88"
              width="12" height="12"
              fill="#26a641" rx="2"/>

        <rect x="66" y="104"
              width="12" height="12"
              fill="#0e4429" rx="2"/>

        <rect x="66" y="120"
              width="12" height="12"
              fill="#26a641" rx="2"/>

        <rect x="66" y="136"
              width="12" height="12"
              fill="#39d353" rx="2"/>

        <rect x="82" y="40"
              width="12" height="12"
              fill="#0e4429" rx="2"/>

        <rect x="82" y="56"
              width="12" height="12"
              fill="#39d353" rx="2"/>

        <rect x="82" y="72"
              width="12" height="12"
              fill="#006d32" rx="2"/>

        <rect x="82" y="88"
              width="12" height="12"
              fill="#26a641" rx="2"/>

        <rect x="82" y="104"
              width="12" height="12"
              fill="#006d32" rx="2"/>

        <rect x="82" y="120"
              width="12" height="12"
              fill="#0e4429" rx="2"/>

        <rect x="82" y="136"
              width="12" height="12"
              fill="#006d32" rx="2"/>

        <rect x="98" y="40"
              width="12" height="12"
              fill="#006d32" rx="2"/>

        <rect x="98" y="56"
              width="12" height="12"
              fill="#0e4429" rx="2"/>

        <rect x="98" y="72"
              width="12" height="12"
              fill="#006d32" rx="2"/>

        <rect x="98" y="88"
              width="12" height="12"
              fill="#006d32" rx="2"/>

        <rect x="98" y="104"
              width="12" height="12"
              fill="#26a641" rx="2"/>

        <rect x="98" y="120"
              width="12" height="12"
              fill="#006d32" rx="2"/>

        <rect x="98" y="136"
              width="12" height="12"
              fill="#006d32" rx="2"/>

        <rect x="114" y="40"
              width="12" height="12"
              fill="#0e4429" rx="2"/>

        <rect x="114" y="56"
              width="12" height="12"
              fill="#0e4429" rx="2"/>

        <rect x="114" y="72"
              width="12" height="12"
              fill="#006d32" rx="2"/>

        <rect x="114" y="88"
              width="12" height="12"
              fill="#26a641" rx="2"/>

        <rect x="114" y="104"
              width="12" height="12"
              fill="#39d353" rx="2"/>

        <rect x="114" y="120"
              width="12" height="12"
              fill="#0e4429" rx="2"/>

        <rect x="114" y="136"
              width="12" height="12"
              fill="#39d353" rx="2"/>

        <rect x="130" y="40"
              width="12" height="12"
              fill="#006d32" rx="2"/>

        <rect x="130" y="56"
              width="12" height="12"
              fill="#0e4429" rx="2"/>

        <rect x="130" y="72"
              width="12" height="12"
              fill="#26a641" rx="2"/>

        <rect x="130" y="88"
              width="12" height="12"
              fill="#006d32" rx="2"/>

        <rect x="130" y="104"
              width="12" height="12"
              fill="#006d32" rx="2"/>

        <rect x="130" y="120"
              width="12" height="12"
              fill="#39d353" rx="2"/>

        <rect x="130" y="136"
              width="12" height="12"
              fill="#39d353" rx="2"/>

        <rect x="146" y="40"
              width="12" height="12"
              fill="#0e4429" rx="2"/>

        <rect x="146" y="56"
              width="12" height="12"
              fill="#26a641" rx="2"/>

        <rect x="146" y="72"
              width="12" height="12"
              fill="#0e4429" rx="2"/>

        <rect x="146" y="88"
              width="12" height="12"
              fill="#006d32" rx="2"/>

        <rect x="146" y="104"
              width="12" height="12"
              fill="#006d32" rx="2"/>

        <rect x="146" y="120"
              width="12" height="12"
              fill="#39d353" rx="2"/>

        <rect x="146" y="136"
              width="12" height="12"
              fill="#0e4429" rx="2"/>

        <rect x="162" y="40"
              width="12" height="12"
              fill="#0e4429" rx="2"/>

        <rect x="162" y="56"
              width="12" height="12"
              fill="#26a641" rx="2"/>

        <rect x="162" y="72"
              width="12" height="12"
              fill="#0e4429" rx="2"/>

        <rect x="162" y="88"
              width="12" height="12"
              fill="#006d32" rx="2"/>

        <rect x="162" y="104"
              width="12" height="12"
              fill="#0e4429" rx="2"/>

        <rect x="162" y="120"
              width="12" height="12"
              fill="#39d353" rx="2"/>

        <rect x="162" y="136"
              width="12" height="12"
              fill="#0e4429" rx="2"/>

        <rect x="178" y="40"
              width="12" height="12"
              fill="#0e4429" rx="2"/>

        <rect x="178" y="56"
              width="12" height="12"
              fill="#26a641" rx="2"/>

        <rect x="178" y="72"
              width="12" height="12"
              fill="#006d32" rx="2"/>

        <rect x="178" y="88"
              width="12" height="12"
              fill="#39d353" rx="2"/>

        <rect x="178" y="104"
              width="12" height="12"
              fill="#26a641" rx="2"/>

        <rect x="178" y="120"
              width="12" height="12"
              fill="#006d32" rx="2"/>

        <rect x="178" y="136"
              width="12" height="12"
              fill="#26a641" rx="2"/>

        <rect x="194" y="40"
              width="12" height="12"
              fill="#26a641" rx="2"/>

        <rect x="194" y="56"
              width="12" height="12"
              fill="#0e4429" rx="2"/>

        <rect x="194" y="72"
              width="12" height="12"
              fill="#39d353" rx="2"/>

        <rect x="194" y="88"
              width="12" height="12"
              fill="#0e4429" rx="2"/>

        <rect x="194" y="104"
              width="12" height="12"
              fill="#006d32" rx="2"/>

        <rect x="194" y="120"
              width="12" height="12"
              fill="#26a641" rx="2"/>

        <rect x="194" y="136"
              width="12" height="12"
              fill="#39d353" rx="2"/>

        <rect x="210" y="40"
              width="12" height="12"
              fill="#26a641" rx="2"/>

        <rect x="210" y="56"
              width="12" height="12"
              fill="#26a641" rx="2"/>

        <rect x="210" y="72"
              width="12" height="12"
              fill="#0e4429" rx="2"/>

        <rect x="210" y="88"
              width="12" height="12"
              fill="#006d32" rx="2"/>

        <rect x="210" y="104"
              width="12" height="12"
              fill="#006d32" rx="2"/>

        <rect x="210" y="120"
              width="12" height="12"
              fill="#26a641" rx="2"/>

        <rect x="210" y="136"
              width="12" height="12"
              fill="#39d353" rx="2"/>

        <rect x="226" y="40"
              width="12" height="12"
              fill="#006d32" rx="2"/>

        <rect x="226" y="56"
              width="12" height="12"
              fill="#006d32" rx="2"/>

        <rect x="226" y="72"
              width="12" height="12"
              fill="#39d353" rx="2"/>

        <rect x="226" y="88"
              width="12" height="12"
              fill="#39d353" rx="2"/>

        <rect x="226" y="104"
              width="12" height="12"
              fill="#26a641" rx="2"/>

        <rect x="226" y="120"
              width="12" height="12"
              fill="#006d32" rx="2"/>

        <rect x="226" y="136"
              width="12" height="12"
              fill="#26a641" rx="2"/>

        <rect x="242" y="40"
              width="12" height="12"
              fill="#39d353" rx="2"/>

        <rect x="242" y="56"
              width="12" height="12"
              fill="#006d32" rx="2"/>

        <rect x="242" y="72"
              width="12" height="12"
              fill="#39d353" rx="2"/>

        <rect x="242" y="88"
              width="12" height="12"
              fill="#39d353" rx="2"/>

        <rect x="242" y="104"
              width="12" height="12"
              fill="#39d353" rx="2"/>

        <rect x="242" y="120"
              width="12" height="12"
              fill="#26a641" rx="2"/>

        <rect x="242" y="136"
              width="12" height="12"
              fill="#39d353" rx="2"/>

        <rect x="258" y="40"
              width="12" height="12"
              fill="#26a641" rx="2"/>

        <rect x="258" y="56"
              width="12" height="12"
              fill="#39d353" rx="2"/>

        <rect x="258" y="72"
              width="12" height="12"
              fill="#0e4429" rx="2"/>

        <rect x="258" y="88"
              width="12" height="12"
              fill="#006d32" rx="2"/>

        <rect x="258" y="104"
              width="12" height="12"
              fill="#006d32" rx="2"/>

        <rect x="258" y="120"
              width="12" height="12"
              fill="#26a641" rx="2"/>

        <rect x="258" y="136"
              width="12" height="12"
              fill="#26a641" rx="2"/>

        <rect x="274" y="40"
              width="12" height="12"
              fill="#0e4429" rx="2"/>

        <rect x="274" y="56"
              width="12" height="12"
              fill="#0e4429" rx="2"/>

        <rect x="274" y="72"
              width="12" height="12"
              fill="#26a641" rx="2"/>

        <rect x="274" y="88"
              width="12" height="12"
              fill="#0e4429" rx="2"/>

        <rect x="274" y="104"
              width="12" height="12"
              fill="#006d32" rx="2"/>

        <rect x="274" y="120"
              width="12" height="12"
              fill="#39d353" rx="2"/>

        <rect x="274" y="136"
              width="12" height="12"
              fill="#0e4429" rx="2"/>

        <rect x="290" y="40"
              width="12" height="12"
              fill="#0e4429" rx="2"/>

        <rect x="290" y="56"
              width="12" height="12"
              fill="#0e4429" rx="2"/>

        <rect x="290" y="72"
              width="12" height="12"
              fill="#0e4429" rx="2"/>

        <rect x="290" y="88"
              width="12" height="12"
              fill="#39d353" rx="2"/>

        <rect x="290" y="104"
              width="12" height="12"
              fill="#39d353" rx="2"/>

        <rect x="290" y="120"
              width="12" height="12"
              fill="#39d353" rx="2"/>

        <rect x="290" y="136"
              width="12" height="12"
              fill="#39d353" rx="2"/>

        <rect x="306" y="40"
              width="12" height="12"
              fill="#39d353" rx="2"/>

        <rect x="306" y="56"
              width="12" height="12"
              fill="#26a641" rx="2"/>

        <rect x="306" y="72"
              width="12" height="12"
              fill="#26a641" rx="2"/>

        <rect x="306" y="88"
              width="12" height="12"
              fill="#0e4429" rx="2"/>

        <rect x="306" y="104"
              width="12" height="12"
              fill="#0e4429" rx="2"/>

        <rect x="306" y="120"
              width="12" height="12"
              fill="#39d353" rx="2"/>

        <rect x="306" y="136"
              width="12" height="12"
              fill="#39d353" rx="2"/>

        <rect x="322" y="40"
              width="12" height="12"
              fill="#0e4429" rx="2"/>

        <rect x="322" y="56"
              width="12" height="12"
              fill="#26a641" rx="2"/>

        <rect x="322" y="72"
              width="12" height="12"
              fill="#39d353" rx="2"/>

        <rect x="322" y="88"
              width="12" height="12"
              fill="#39d353" rx="2"/>

        <rect x="322" y="104"
              width="12" height="12"
              fill="#39d353" rx="2"/>

        <rect x="322" y="120"
              width="12" height="12"
              fill="#39d353" rx="2"/>

        <rect x="322" y="136"
              width="12" height="12"
              fill="#39d353" rx="2"/>

        <rect x="338" y="40"
              width="12" height="12"
              fill="#39d353" rx="2"/>

        <rect x="338" y="56"
              width="12" height="12"
              fill="#26a641" rx="2"/>

        <rect x="338" y="72"
              width="12" height="12"
              fill="#0e4429" rx="2"/>

        <rect x="338" y="88"
              width="12" height="12"
              fill="#0e4429" rx="2"/>

        <rect x="338" y="104"
              width="12" height="12"
              fill="#006d32" rx="2"/>

        <rect x="338" y="120"
              width="12" height="12"
              fill="#006d32" rx="2"/>

        <rect x="338" y="136"
              width="12" height="12"
              fill="#26a641" rx="2"/>

        <rect x="354" y="40"
              width="12" height="12"
              fill="#26a641" rx="2"/>

        <rect x="354" y="56"
              width="12" height="12"
              fill="#39d353" rx="2"/>

        <rect x="354" y="72"
              width="12" height="12"
              fill="#006d32" rx="2"/>

        <rect x="354" y="88"
              width="12" height="12"
              fill="#26a641" rx="2"/>

        <rect x="354" y="104"
              width="12" height="12"
              fill="#006d32" rx="2"/>

        <rect x="354" y="120"
              width="12" height="12"
              fill="#006d32" rx="2"/>

        <rect x="354" y="136"
              width="12" height="12"
              fill="#39d353" rx="2"/>

        <rect x="370" y="40"
              width="12" height="12"
              fill="#26a641" rx="2"/>

        <rect x="370" y="56"
              width="12" height="12"
              fill="#26a641" rx="2"/>

        <rect x="370" y="72"
              width="12" height="12"
              fill="#0e4429" rx="2"/>

        <rect x="370" y="88"
              width="12" height="12"
              fill="#006d32" rx="2"/>

        <rect x="370" y="104"
              width="12" height="12"
              fill="#006d32" rx="2"/>

        <rect x="370" y="120"
              width="12" height="12"
              fill="#39d353" rx="2"/>

        <rect x="370" y="136"
              width="12" height="12"
              fill="#39d353" rx="2"/>

        <rect x="386" y="40"
              width="12" height="12"
              fill="#0e4429" rx="2"/>

        <rect x="386" y="56"
              width="12" height="12"
              fill="#26a641" rx="2"/>

        <rect x="386" y="72"
              width="12" height="12"
              fill="#39d353" rx="2"/>

        <rect x="386" y="88"
              width="12" height="12"
              fill="#39d353" rx="2"/>

        <rect x="386" y="104"
              width="12" height="12"
              fill="#26a641" rx="2"/>

        <rect x="386" y="120"
              width="12" height="12"
              fill="#006d32" rx="2"/>

        <rect x="386" y="136"
              width="12" height="12"
              fill="#39d353" rx="2"/>

        <rect x="402" y="40"
              width="12" height="12"
              fill="#006d32" rx="2"/>

        <rect x="402" y="56"
              width="12" height="12"
              fill="#006d32" rx="2"/>

        <rect x="402" y="72"
              width="12" height="12"
              fill="#006d32" rx="2"/>

        <rect x="402" y="88"
              width="12" height="12"
              fill="#39d353" rx="2"/>

        <rect x="402" y="104"
              width="12" height="12"
              fill="#0e4429" rx="2"/>

        <rect x="402" y="120"
              width="12" height="12"
              fill="#006d32" rx="2"/>

        <rect x="402" y="136"
              width="12" height="12"
              fill="#26a641" rx="2"/>

        <rect x="418" y="40"
              width="12" height="12"
              fill="#26a641" rx="2"/>

        <rect x="418" y="56"
              width="12" height="12"
              fill="#39d353" rx="2"/>

        <rect x="418" y="72"
              width="12" height="12"
              fill="#26a641" rx="2"/>

        <rect x="418" y="88"
              width="12" height="12"
              fill="#006d32" rx="2"/>

        <rect x="418" y="104"
              width="12" height="12"
              fill="#0e4429" rx="2"/>

        <rect x="418" y="120"
              width="12" height="12"
              fill="#39d353" rx="2"/>

        <rect x="418" y="136"
              width="12" height="12"
              fill="#006d32" rx="2"/>

        <rect x="434" y="40"
              width="12" height="12"
              fill="#0e4429" rx="2"/>

        <rect x="434" y="56"
              width="12" height="12"
              fill="#006d32" rx="2"/>

        <rect x="434" y="72"
              width="12" height="12"
              fill="#0e4429" rx="2"/>

        <rect x="434" y="88"
              width="12" height="12"
              fill="#39d353" rx="2"/>

        <rect x="434" y="104"
              width="12" height="12"
              fill="#0e4429" rx="2"/>

        <rect x="434" y="120"
              width="12" height="12"
              fill="#39d353" rx="2"/>

        <rect x="434" y="136"
              width="12" height="12"
              fill="#39d353" rx="2"/>

        <rect x="450" y="40"
              width="12" height="12"
              fill="#0e4429" rx="2"/>

        <rect x="450" y="56"
              width="12" height="12"
              fill="#26a641" rx="2"/>

        <rect x="450" y="72"
              width="12" height="12"
              fill="#26a641" rx="2"/>

        <rect x="450" y="88"
              width="12" height="12"
              fill="#006d32" rx="2"/>

        <rect x="450" y="104"
              width="12" height="12"
              fill="#006d32" rx="2"/>

        <rect x="450" y="120"
              width="12" height="12"
              fill="#0e4429" rx="2"/>

        <rect x="450" y="136"
              width="12" height="12"
              fill="#39d353" rx="2"/>

        <rect x="466" y="40"
              width="12" height="12"
              fill="#39d353" rx="2"/>

        <rect x="466" y="56"
              width="12" height="12"
              fill="#26a641" rx="2"/>

        <rect x="466" y="72"
              width="12" height="12"
              fill="#006d32" rx="2"/>

        <rect x="466" y="88"
              width="12" height="12"
              fill="#39d353" rx="2"/>

        <rect x="466" y="104"
              width="12" height="12"
              fill="#26a641" rx="2"/>

        <rect x="466" y="120"
              width="12" height="12"
              fill="#26a641" rx="2"/>

        <rect x="466" y="136"
              width="12" height="12"
              fill="#39d353" rx="2"/>

        <rect x="482" y="40"
              width="12" height="12"
              fill="#0e4429" rx="2"/>

        <rect x="482" y="56"
              width="12" height="12"
              fill="#26a641" rx="2"/>

        <rect x="482" y="72"
              width="12" height="12"
              fill="#0e4429" rx="2"/>

        <rect x="482" y="88"
              width="12" height="12"
              fill="#39d353" rx="2"/>

        <rect x="482" y="104"
              width="12" height="12"
              fill="#006d32" rx="2"/>

        <rect x="482" y="120"
              width="12" height="12"
              fill="#39d353" rx="2"/>

        <rect x="482" y="136"
              width="12" height="12"
              fill="#006d32" rx="2"/>

        <rect x="498" y="40"
              width="12" height="12"
              fill="#26a641" rx="2"/>

        <rect x="498" y="56"
              width="12" height="12"
              fill="#006d32" rx="2"/>

        <rect x="498" y="72"
              width="12" height="12"
              fill="#26a641" rx="2"/>

        <rect x="498" y="88"
              width="12" height="12"
              fill="#26a641" rx="2"/>

        <rect x="498" y="104"
              width="12" height="12"
              fill="#006d32" rx="2"/>

        <rect x="498" y="120"
              width="12" height="12"
              fill="#0e4429" rx="2"/>

        <rect x="498" y="136"
              width="12" height="12"
              fill="#39d353" rx="2"/>

        <rect x="514" y="40"
              width="12" height="12"
              fill="#0e4429" rx="2"/>

        <rect x="514" y="56"
              width="12" height="12"
              fill="#0e4429" rx="2"/>

        <rect x="514" y="72"
              width="12" height="12"
              fill="#39d353" rx="2"/>

        <rect x="514" y="88"
              width="12" height="12"
              fill="#26a641" rx="2"/>

        <rect x="514" y="104"
              width="12" height="12"
              fill="#0e4429" rx="2"/>

        <rect x="514" y="120"
              width="12" height="12"
              fill="#0e4429" rx="2"/>

        <rect x="514" y="136"
              width="12" height="12"
              fill="#26a641" rx="2"/>

        <rect x="530" y="40"
              width="12" height="12"
              fill="#0e4429" rx="2"/>

        <rect x="530" y="56"
              width="12" height="12"
              fill="#006d32" rx="2"/>

        <rect x="530" y="72"
              width="12" height="12"
              fill="#006d32" rx="2"/>

        <rect x="530" y="88"
              width="12" height="12"
              fill="#26a641" rx="2"/>

        <rect x="530" y="104"
              width="12" height="12"
              fill="#0e4429" rx="2"/>

        <rect x="530" y="120"
              width="12" height="12"
              fill="#26a641" rx="2"/>

        <rect x="530" y="136"
              width="12" height="12"
              fill="#006d32" rx="2"/>

        <rect x="546" y="40"
              width="12" height="12"
              fill="#39d353" rx="2"/>

        <rect x="546" y="56"
              width="12" height="12"
              fill="#006d32" rx="2"/>

        <rect x="546" y="72"
              width="12" height="12"
              fill="#26a641" rx="2"/>

        <rect x="546" y="88"
              width="12" height="12"
              fill="#0e4429" rx="2"/>

        <rect x="546" y="104"
              width="12" height="12"
              fill="#26a641" rx="2"/>

        <rect x="546" y="120"
              width="12" height="12"
              fill="#39d353" rx="2"/>

        <rect x="546" y="136"
              width="12" height="12"
              fill="#39d353" rx="2"/>

        <rect x="562" y="40"
              width="12" height="12"
              fill="#006d32" rx="2"/>

        <rect x="562" y="56"
              width="12" height="12"
              fill="#39d353" rx="2"/>

        <rect x="562" y="72"
              width="12" height="12"
              fill="#26a641" rx="2"/>

        <rect x="562" y="88"
              width="12" height="12"
              fill="#26a641" rx="2"/>

        <rect x="562" y="104"
              width="12" height="12"
              fill="#0e4429" rx="2"/>

        <rect x="562" y="120"
              width="12" height="12"
              fill="#39d353" rx="2"/>

        <rect x="562" y="136"
              width="12" height="12"
              fill="#26a641" rx="2"/>

        <rect x="578" y="40"
              width="12" height="12"
              fill="#0e4429" rx="2"/>

        <rect x="578" y="56"
              width="12" height="12"
              fill="#006d32" rx="2"/>

        <rect x="578" y="72"
              width="12" height="12"
              fill="#006d32" rx="2"/>

        <rect x="578" y="88"
              width="12" height="12"
              fill="#006d32" rx="2"/>

        <rect x="578" y="104"
              width="12" height="12"
              fill="#26a641" rx="2"/>

        <rect x="578" y="120"
              width="12" height="12"
              fill="#0e4429" rx="2"/>

        <rect x="578" y="136"
              width="12" height="12"
              fill="#39d353" rx="2"/>

        <rect x="594" y="40"
              width="12" height="12"
              fill="#0e4429" rx="2"/>

        <rect x="594" y="56"
              width="12" height="12"
              fill="#39d353" rx="2"/>

        <rect x="594" y="72"
              width="12" height="12"
              fill="#0e4429" rx="2"/>

        <rect x="594" y="88"
              width="12" height="12"
              fill="#0e4429" rx="2"/>

        <rect x="594" y="104"
              width="12" height="12"
              fill="#26a641" rx="2"/>

        <rect x="594" y="120"
              width="12" height="12"
              fill="#0e4429" rx="2"/>

        <rect x="594" y="136"
              width="12" height="12"
              fill="#0e4429" rx="2"/>

        <rect x="610" y="40"
              width="12" height="12"
              fill="#26a641" rx="2"/>

        <rect x="610" y="56"
              width="12" height="12"
              fill="#0e4429" rx="2"/>

        <rect x="610" y="72"
              width="12" height="12"
              fill="#0e4429" rx="2"/>

        <rect x="610" y="88"
              width="12" height="12"
              fill="#26a641" rx="2"/>

        <rect x="610" y="104"
              width="12" height="12"
              fill="#39d353" rx="2"/>

        <rect x="610" y="120"
              width="12" height="12"
              fill="#006d32" rx="2"/>

        <rect x="610" y="136"
              width="12" height="12"
              fill="#39d353" rx="2"/>

        <rect x="626" y="40"
              width="12" height="12"
              fill="#0e4429" rx="2"/>

        <rect x="626" y="56"
              width="12" height="12"
              fill="#26a641" rx="2"/>

        <rect x="626" y="72"
              width="12" height="12"
              fill="#0e4429" rx="2"/>

        <rect x="626" y="88"
              width="12" height="12"
              fill="#39d353" rx="2"/>

        <rect x="626" y="104"
              width="12" height="12"
              fill="#006d32" rx="2"/>

        <rect x="626" y="120"
              width="12" height="12"
              fill="#26a641" rx="2"/>

        <rect x="626" y="136"
              width="12" height="12"
              fill="#006d32" rx="2"/>

        <rect x="642" y="40"
              width="12" height="12"
              fill="#39d353" rx="2"/>

        <rect x="642" y="56"
              width="12" height="12"
              fill="#006d32" rx="2"/>

        <rect x="642" y="72"
              width="12" height="12"
              fill="#39d353" rx="2"/>

        <rect x="642" y="88"
              width="12" height="12"
              fill="#26a641" rx="2"/>

        <rect x="642" y="104"
              width="12" height="12"
              fill="#26a641" rx="2"/>

        <rect x="642" y="120"
              width="12" height="12"
              fill="#39d353" rx="2"/>

        <rect x="642" y="136"
              width="12" height="12"
              fill="#26a641" rx="2"/>

        <rect x="658" y="40"
              width="12" height="12"
              fill="#26a641" rx="2"/>

        <rect x="658" y="56"
              width="12" height="12"
              fill="#26a641" rx="2"/>

        <rect x="658" y="72"
              width="12" height="12"
              fill="#26a641" rx="2"/>

        <rect x="658" y="88"
              width="12" height="12"
              fill="#006d32" rx="2"/>

        <rect x="658" y="104"
              width="12" height="12"
              fill="#39d353" rx="2"/>

        <rect x="658" y="120"
              width="12" height="12"
              fill="#39d353" rx="2"/>

        <rect x="658" y="136"
              width="12" height="12"
              fill="#26a641" rx="2"/>

        <rect x="674" y="40"
              width="12" height="12"
              fill="#006d32" rx="2"/>

        <rect x="674" y="56"
              width="12" height="12"
              fill="#0e4429" rx="2"/>

        <rect x="674" y="72"
              width="12" height="12"
              fill="#39d353" rx="2"/>

        <rect x="674" y="88"
              width="12" height="12"
              fill="#006d32" rx="2"/>

        <rect x="674" y="104"
              width="12" height="12"
              fill="#39d353" rx="2"/>

        <rect x="674" y="120"
              width="12" height="12"
              fill="#0e4429" rx="2"/>

        <rect x="674" y="136"
              width="12" height="12"
              fill="#39d353" rx="2"/>

        <rect x="690" y="40"
              width="12" height="12"
              fill="#26a641" rx="2"/>

        <rect x="690" y="56"
              width="12" height="12"
              fill="#39d353" rx="2"/>

        <rect x="690" y="72"
              width="12" height="12"
              fill="#0e4429" rx="2"/>

        <rect x="690" y="88"
              width="12" height="12"
              fill="#0e4429" rx="2"/>

        <rect x="690" y="104"
              width="12" height="12"
              fill="#006d32" rx="2"/>

        <rect x="690" y="120"
              width="12" height="12"
              fill="#006d32" rx="2"/>

        <rect x="690" y="136"
              width="12" height="12"
              fill="#0e4429" rx="2"/>

        <rect x="706" y="40"
              width="12" height="12"
              fill="#26a641" rx="2"/>

        <rect x="706" y="56"
              width="12" height="12"
              fill="#006d32" rx="2"/>

        <rect x="706" y="72"
              width="12" height="12"
              fill="#0e4429" rx="2"/>

        <rect x="706" y="88"
              width="12" height="12"
              fill="#006d32" rx="2"/>

        <rect x="706" y="104"
              width="12" height="12"
              fill="#26a641" rx="2"/>

        <rect x="706" y="120"
              width="12" height="12"
              fill="#006d32" rx="2"/>

        <rect x="706" y="136"
              width="12" height="12"
              fill="#26a641" rx="2"/>

        <rect x="722" y="40"
              width="12" height="12"
              fill="#26a641" rx="2"/>

        <rect x="722" y="56"
              width="12" height="12"
              fill="#0e4429" rx="2"/>

        <rect x="722" y="72"
              width="12" height="12"
              fill="#39d353" rx="2"/>

        <rect x="722" y="88"
              width="12" height="12"
              fill="#39d353" rx="2"/>

        <rect x="722" y="104"
              width="12" height="12"
              fill="#39d353" rx="2"/>

        <rect x="722" y="120"
              width="12" height="12"
              fill="#26a641" rx="2"/>

        <rect x="722" y="136"
              width="12" height="12"
              fill="#0e4429" rx="2"/>

        <rect x="738" y="40"
              width="12" height="12"
              fill="#006d32" rx="2"/>

        <rect x="738" y="56"
              width="12" height="12"
              fill="#26a641" rx="2"/>

        <rect x="738" y="72"
              width="12" height="12"
              fill="#26a641" rx="2"/>

        <rect x="738" y="88"
              width="12" height="12"
              fill="#39d353" rx="2"/>

        <rect x="738" y="104"
              width="12" height="12"
              fill="#26a641" rx="2"/>

        <rect x="738" y="120"
              width="12" height="12"
              fill="#26a641" rx="2"/>

        <rect x="738" y="136"
              width="12" height="12"
              fill="#0e4429" rx="2"/>

        <rect x="754" y="40"
              width="12" height="12"
              fill="#26a641" rx="2"/>

        <rect x="754" y="56"
              width="12" height="12"
              fill="#006d32" rx="2"/>

        <rect x="754" y="72"
              width="12" height="12"
              fill="#39d353" rx="2"/>

        <rect x="754" y="88"
              width="12" height="12"
              fill="#39d353" rx="2"/>

        <rect x="754" y="104"
              width="12" height="12"
              fill="#26a641" rx="2"/>

        <rect x="754" y="120"
              width="12" height="12"
              fill="#26a641" rx="2"/>

        <rect x="754" y="136"
              width="12" height="12"
              fill="#26a641" rx="2"/>

        <rect x="770" y="40"
              width="12" height="12"
              fill="#39d353" rx="2"/>

        <rect x="770" y="56"
              width="12" height="12"
              fill="#26a641" rx="2"/>

        <rect x="770" y="72"
              width="12" height="12"
              fill="#0e4429" rx="2"/>

        <rect x="770" y="88"
              width="12" height="12"
              fill="#26a641" rx="2"/>

        <rect x="770" y="104"
              width="12" height="12"
              fill="#39d353" rx="2"/>

        <rect x="770" y="120"
              width="12" height="12"
              fill="#0e4429" rx="2"/>

        <rect x="770" y="136"
              width="12" height="12"
              fill="#006d32" rx="2"/>

        <rect x="786" y="40"
              width="12" height="12"
              fill="#006d32" rx="2"/>

        <rect x="786" y="56"
              width="12" height="12"
              fill="#39d353" rx="2"/>

        <rect x="786" y="72"
              width="12" height="12"
              fill="#006d32" rx="2"/>

        <rect x="786" y="88"
              width="12" height="12"
              fill="#39d353" rx="2"/>

        <rect x="786" y="104"
              width="12" height="12"
              fill="#0e4429" rx="2"/>

        <rect x="786" y="120"
              width="12" height="12"
              fill="#26a641" rx="2"/>

        <rect x="786" y="136"
              width="12" height="12"
              fill="#39d353" rx="2"/>

        <rect x="802" y="40"
              width="12" height="12"
              fill="#26a641" rx="2"/>

        <rect x="802" y="56"
              width="12" height="12"
              fill="#39d353" rx="2"/>

        <rect x="802" y="72"
              width="12" height="12"
              fill="#26a641" rx="2"/>

        <rect x="802" y="88"
              width="12" height="12"
              fill="#39d353" rx="2"/>

        <rect x="802" y="104"
              width="12" height="12"
              fill="#26a641" rx="2"/>

        <rect x="802" y="120"
              width="12" height="12"
              fill="#26a641" rx="2"/>

        <rect x="802" y="136"
              width="12" height="12"
              fill="#26a641" rx="2"/>

        <rect x="818" y="40"
              width="12" height="12"
              fill="#0e4429" rx="2"/>

        <rect x="818" y="56"
              width="12" height="12"
              fill="#39d353" rx="2"/>

        <rect x="818" y="72"
              width="12" height="12"
              fill="#39d353" rx="2"/>

        <rect x="818" y="88"
              width="12" height="12"
              fill="#0e4429" rx="2"/>

        <rect x="818" y="104"
              width="12" height="12"
              fill="#0e4429" rx="2"/>

        <rect x="818" y="120"
              width="12" height="12"
              fill="#39d353" rx="2"/>

        <rect x="818" y="136"
              width="12" height="12"
              fill="#0e4429" rx="2"/>

        <rect x="834" y="40"
              width="12" height="12"
              fill="#26a641" rx="2"/>

        <rect x="834" y="56"
              width="12" height="12"
              fill="#0e4429" rx="2"/>

        <rect x="834" y="72"
              width="12" height="12"
              fill="#39d353" rx="2"/>

        <rect x="834" y="88"
              width="12" height="12"
              fill="#39d353" rx="2"/>

        <rect x="834" y="104"
              width="12" height="12"
              fill="#39d353" rx="2"/>

        <rect x="834" y="120"
              width="12" height="12"
              fill="#39d353" rx="2"/>

        <rect x="834" y="136"
              width="12" height="12"
              fill="#39d353" rx="2"/>

        <rect x="850" y="40"
              width="12" height="12"
              fill="#39d353" rx="2"/>

        <rect x="850" y="56"
              width="12" height="12"
              fill="#39d353" rx="2"/>

        <rect x="850" y="72"
              width="12" height="12"
              fill="#0e4429" rx="2"/>

        <rect x="850" y="88"
              width="12" height="12"
              fill="#0e4429" rx="2"/>

        <rect x="850" y="104"
              width="12" height="12"
              fill="#0e4429" rx="2"/>

        <rect x="850" y="120"
              width="12" height="12"
              fill="#0e4429" rx="2"/>

        <rect x="850" y="136"
              width="12" height="12"
              fill="#0e4429" rx="2"/>

    </g>

    <g id="bullets"></g>
    <g id="effects"></g>

    <!-- Gun -->
    <g id="gun">
        <rect id="barrel"
              x="425"
              y="230"
              width="6"
              height="30"
              fill="#58a6ff"/>
        <rect id="base"
              x="400"
              y="260"
              width="50"
              height="30"
              fill="#58a6ff" rx="6"/>
    </g>

<script><![CDATA[

const gun = document.getElementById("gun");
const bulletsGroup = document.getElementById("bullets");
const boxesGroup = document.getElementById("boxes");
const effectsGroup = document.getElementById("effects");

let gunX = 400;
let direction = 1;

function moveGun() {{
    gunX += direction * 1.5;

    if (gunX < 200 || gunX > 650)
        direction *= -1;

    gun.setAttribute("transform", `translate(${gunX-400},0)`);
    requestAnimationFrame(moveGun);
}}

moveGun();

// Shooting sound
function playSound() {{
    const audio = new Audio("https://actions.google.com/sounds/v1/alarms/beep_short.ogg");
    audio.volume = 0.2;
    audio.play();
}}

function shoot() {{

    playSound();

    const bullet = document.createElementNS("http://www.w3.org/2000/svg","circle");
    bullet.setAttribute("cx", gunX + 25);
    bullet.setAttribute("cy", 230);
    bullet.setAttribute("r", 4);
    bullet.setAttribute("fill", "#f85149");

    bulletsGroup.appendChild(bullet);

    let interval = setInterval(() => {{

        let cy = parseFloat(bullet.getAttribute("cy"));
        bullet.setAttribute("cy", cy - 4);

        const boxes = boxesGroup.querySelectorAll("rect");

        boxes.forEach(box => {{
            let bx = parseFloat(box.getAttribute("x"));
            let by = parseFloat(box.getAttribute("y"));

            if (gunX + 25 > bx &&
                gunX + 25 < bx + {BOX_SIZE} &&
                cy < by + {BOX_SIZE} &&
                cy > by) {{

                // Explosion effect
                const explosion = document.createElementNS("http://www.w3.org/2000/svg","circle");
                explosion.setAttribute("cx", bx + {BOX_SIZE}/2);
                explosion.setAttribute("cy", by + {BOX_SIZE}/2);
                explosion.setAttribute("r", 2);
                explosion.setAttribute("fill", "orange");
                effectsGroup.appendChild(explosion);

                explosion.animate([
                    {{r:2, opacity:1}},
                    {{r:15, opacity:0}}
                ], {{
                    duration:300
                }});

                box.remove();
                bullet.remove();
                clearInterval(interval);
            }}
        }});

        if (cy < 0) {{
            bullet.remove();
            clearInterval(interval);
        }}

    }}, 16);
}}

setInterval(shoot, 900);

]]></script>

</svg>
